<svg data-v-423bf9ae="" xmlns="http://www.w3.org/2000/svg" viewBox="0 0 NaN NaN" class="fontAboveSlogan"><!----><!----><!----><g data-v-423bf9ae="" id="ff8e5531-69de-4877-b339-1d27736211eb" fill="black" transform="matrix(8.875739970530615,0,0,8.875739970530615,-388.0770774715101,-27.72982290315265)"><path d="M11.07 14.06L11.07 3.42L7.69 3.42L5.87 10.43L3.99 3.42L0.62 3.42L0.62 14.06L3.12 14.06L3.12 8.62L4.65 14.06L7.10 14.06L8.61 8.62L8.61 14.06ZM17.84 14.06C19.11 14.06 19.75 13.41 19.75 12.12L19.75 7.71C19.75 6.45 19.10 5.84 17.79 5.84L12.31 5.84L12.31 16.66L14.73 16.66L14.73 14.06ZM17.33 11.20C17.33 11.48 17.19 11.62 16.91 11.62L14.73 11.62L14.73 8.26L16.91 8.26C17.19 8.26 17.33 8.41 17.33 8.71ZM28.31 14.06L28.31 7.77C28.31 6.48 27.66 5.84 26.39 5.84L23.35 5.84L23.35 3.42L20.93 3.42L20.93 14.06L23.35 14.06L23.35 8.27L25.47 8.27C25.75 8.27 25.89 8.41 25.89 8.69L25.89 14.06ZM34.51 11.21C34.51 11.49 34.37 11.63 34.09 11.63L32.31 11.63C32.03 11.63 31.89 11.48 31.89 11.19L31.89 8.69C31.89 8.41 32.03 8.27 32.31 8.27L34.09 8.27C34.37 8.27 34.51 8.41 34.51 8.69ZM35.03 14.06C36.27 14.06 36.90 13.41 36.90 12.14L36.90 7.78C36.90 6.48 36.27 5.84 35 5.84L31.39 5.84C30.11 5.84 29.47 6.48 29.47 7.77L29.47 12.19C29.47 13.44 30.13 14.06 31.43 14.06ZM52.77 14.06L52.77 3.42L49.38 3.42L47.56 10.43L45.68 3.42L42.31 3.42L42.31 14.06L44.81 14.06L44.81 8.62L46.34 14.06L48.79 14.06L50.30 8.62L50.30 14.06ZM58.98 11.21C58.98 11.49 58.84 11.63 58.56 11.63L56.78 11.63C56.50 11.63 56.36 11.48 56.36 11.19L56.36 8.69C56.36 8.41 56.50 8.27 56.78 8.27L58.56 8.27C58.84 8.27 58.98 8.41 58.98 8.69ZM59.50 14.06C60.75 14.06 61.38 13.41 61.38 12.14L61.38 7.78C61.38 6.48 60.75 5.84 59.47 5.84L55.86 5.84C54.59 5.84 53.94 6.48 53.94 7.77L53.94 12.19C53.94 13.44 54.60 14.06 55.90 14.06ZM64.43 5.17C64.78 5.17 64.96 4.98 64.96 4.62L64.96 3.68C64.96 3.32 64.78 3.14 64.43 3.14L63.11 3.14C62.73 3.14 62.55 3.32 62.55 3.68L62.55 4.62C62.55 4.98 62.72 5.17 63.06 5.17ZM64.97 14.06L64.97 5.84L62.55 5.84L62.55 14.06ZM71.74 14.06C73.01 14.06 73.65 13.41 73.65 12.12L73.65 7.71C73.65 6.45 73.00 5.84 71.69 5.84L66.21 5.84L66.21 16.66L68.63 16.66L68.63 14.06ZM71.23 11.20C71.23 11.48 71.09 11.62 70.81 11.62L68.63 11.62L68.63 8.26L70.81 8.26C71.09 8.26 71.23 8.41 71.23 8.71ZM79.81 11.21C79.81 11.49 79.67 11.63 79.39 11.63L77.62 11.63C77.34 11.63 77.20 11.48 77.20 11.19L77.20 8.69C77.20 8.41 77.34 8.27 77.62 8.27L79.39 8.27C79.67 8.27 79.81 8.41 79.81 8.69ZM80.33 14.06C81.58 14.06 82.21 13.41 82.21 12.14L82.21 7.78C82.21 6.48 81.58 5.84 80.30 5.84L76.69 5.84C75.42 5.84 74.77 6.48 74.77 7.77L74.77 12.19C74.77 13.44 75.43 14.06 76.73 14.06ZM85.81 14.06L85.81 3.42L83.38 3.42L83.38 14.06ZM91.91 11.52C91.91 11.70 91.81 11.80 91.63 11.80L89.59 11.80C89.40 11.80 89.31 11.70 89.31 11.52L89.31 10.95C89.31 10.77 89.40 10.67 89.59 10.67L91.63 10.67C91.81 10.67 91.91 10.77 91.91 10.95ZM92.44 14.06C93.70 14.06 94.33 13.41 94.33 12.12L94.33 7.77C94.33 6.48 93.67 5.84 92.37 5.84L87.22 5.84L87.22 8.13L91.49 8.13C91.77 8.13 91.91 8.27 91.91 8.55L91.91 9.17C91.78 9.11 91.63 9.07 91.45 9.07L88.69 9.07C87.50 9.07 86.90 9.70 86.90 10.98L86.90 12.19C86.90 13.44 87.50 14.06 88.69 14.06ZM97.38 5.17C97.73 5.17 97.92 4.98 97.92 4.62L97.92 3.68C97.92 3.32 97.73 3.14 97.38 3.14L96.07 3.14C95.69 3.14 95.51 3.32 95.51 3.68L95.51 4.62C95.51 4.98 95.68 5.17 96.01 5.17ZM97.93 14.06L97.93 5.84L95.51 5.84L95.51 14.06Z"></path></g><!----><!----><g data-v-423bf9ae="" id="69a21ec2-8487-4528-9044-6c7d8f773f23" fill="black" transform="matrix(Infinity,0,0,Infinity,0,0)"><path d=""></path></g></svg>